<svg xmlns="http://www.w3.org/2000/svg" width="32" height="32" viewBox="0 0 32 32">
    <g fill="none" fill-rule="evenodd">
        <path d="M0 0H32V32H0z"/>
        <path fill="#000" d="M22 13.64h-3.75v-3.126c.131-1.25-.775-2.369-2.025-2.5-.158-.019-.317-.019-.475 0h-.981c-.43.012-.797.312-.894.731v.075l-.625 3.963-2.213 3.356H7v8.75h11.875c4.65 0 5.625-2.719 5.625-5v-3.75c.131-1.25-.775-2.369-2.025-2.5-.158-.019-.317-.019-.475 0zm-11.25 10h-2.5v-6.25h2.5v6.25zm12.5-3.75c0 2.555-1.387 3.75-4.375 3.75H12v-6.688l2.5-3.707.456-3.356.088-.625h.706c.9 0 1.25.35 1.25 1.25v4.375h5c.9 0 1.25.35 1.25 1.25v3.75z"/>
    </g>
</svg>
