<svg xmlns="http://www.w3.org/2000/svg" width="32" height="32" viewBox="0 0 32 32">
    <g fill="none" fill-rule="evenodd">
        <path d="M0 0H32V32H0z"/>
        <path fill="#151515" d="M11 14c1.105 0 2 .895 2 2H9v12h14V16h-4c0-1.105.895-2 2-2h3c.513 0 .936.386.993.883L25 15v14c0 .513-.386.936-.883.993L24 30H8c-.513 0-.936-.386-.993-.883L7 29V15c0-.513.386-.936.883-.993L8 14h3zm5.08-10.17c.485.02.964.214 1.334.584l5.657 5.657c-.781.781-2.047.781-2.828 0L17 6.83V25c0 .552-.448 1-1 1-.513 0-.936-.386-.993-.883L15 25V6.829l-3.243 3.242c-.74.74-1.915.779-2.7.117l-.128-.117 5.657-5.657c.37-.37.849-.564 1.333-.584z"/>
    </g>
</svg>
