<svg xmlns="http://www.w3.org/2000/svg" width="32" height="32" viewBox="0 0 32 32">
    <g fill="none" fill-rule="evenodd">
        <path d="M0 0H32V32H0z"/>
        <path fill="#151515" d="M7 23.666h18V25H7v-1.334zm15.05-12.001c.24-.25.376-.59.376-.943 0-.354-.135-.694-.377-.944l-2.301-2.387c-.241-.25-.569-.391-.91-.391-.341 0-.668.14-.91.391L8.287 17.392v4.274h4.12l9.643-10.001zm-3.215-3.334l2.308 2.394-1.929 2-2.308-2.394 1.929-2zM9.571 20.333v-2.394L16 11.272l2.308 2.393-6.429 6.668H9.571z"/>
    </g>
</svg>
