<svg xmlns="http://www.w3.org/2000/svg" width="32" height="32" viewBox="0 0 32 32">
    <g fill="none" fill-rule="evenodd">
        <path d="M0 0H32V32H0z"/>
        <path fill="#000" fill-rule="nonzero" stroke="#151515" stroke-width=".8" d="M20.53 19.998c-.134-.015-.247-.106-.29-.234-.044-.128-.009-.27.09-.363l2.466-2.436h-10.66C10.091 16.965 8 15.284 8 12.352c-.002-.125.064-.242.172-.305.109-.063.243-.063.351 0 .108.063.174.18.173.305 0 2.609 1.77 3.918 3.44 3.918h10.66l-2.467-2.436c-.104-.083-.152-.217-.124-.347.028-.13.129-.232.258-.264.13-.03.265.014.35.117l3.081 3.028c.068.065.106.155.106.25 0 .094-.038.184-.106.25l-3.081 3.027c-.074.076-.178.114-.283.103z"/>
    </g>
</svg>
