<svg xmlns="http://www.w3.org/2000/svg" width="32" height="32" viewBox="0 0 32 32">
    <g fill="none" fill-rule="evenodd">
        <g>
            <g>
                <path d="M0 0H32V32H0z" transform="translate(-756 -727) translate(756 727)"/>
                <path fill="#000" fill-rule="nonzero" d="M6.91 5c-.5 0-.91.412-.91.917V27c1.212 0 1.818-.663 1.818-1.988V16.87c1.127-.715 3.646-1.852 7.3-.733 5.873 1.796 10.573-5.189 10.764-5.482.163-.239.154-.55-.01-.789-.163-.229-.463-.339-.736-.256-.045.009-4.736 1.256-8.972-1.733C13.19 5.78 9.673 5.77 7.818 5.963v-.046C7.818 5.412 7.41 5 6.91 5z" transform="translate(-756 -727) translate(756 727)"/>
            </g>
        </g>
    </g>
</svg>
