<svg xmlns="http://www.w3.org/2000/svg" width="32" height="32" viewBox="0 0 32 32">
    <g fill="none" fill-rule="evenodd">
        <path d="M0 0H32V32H0z"/>
        <path d="M4 4L28 4 28 28 4 28z"/>
        <path fill="#151515" d="M22.5 5C24.433 5 26 6.567 26 8.5S24.433 12 22.5 12c-.928 0-1.772-.361-2.398-.95l-8.196 3.64c.061.26.094.532.094.81 0 .485-.099.947-.277 1.367l7.851 4.711C20.2 20.628 21.277 20 22.5 20c1.933 0 3.5 1.567 3.5 3.5S24.433 27 22.5 27 19 25.433 19 23.5l.002.067-8.575-5.144c-.503.331-1.096.537-1.735.572L8.5 19C6.567 19 5 17.433 5 15.5S6.567 12 8.5 12c.928 0 1.772.361 2.398.95l8.196-3.64C19.033 9.05 19 8.777 19 8.5 19 6.567 20.567 5 22.5 5zm0 17c-.828 0-1.5.672-1.5 1.5s.672 1.5 1.5 1.5 1.5-.672 1.5-1.5-.672-1.5-1.5-1.5zm-14-8c-.828 0-1.5.672-1.5 1.5S7.672 17 8.5 17s1.5-.672 1.5-1.5S9.328 14 8.5 14zm14-7c-.828 0-1.5.672-1.5 1.5s.672 1.5 1.5 1.5S24 9.328 24 8.5 23.328 7 22.5 7z"/>
    </g>
</svg>
