<svg aria-hidden="true" style="position: absolute; width: 0; height: 0; overflow: hidden;" version="1.1" xmlns="http://www.w3.org/2000/svg" xmlns:xlink="http://www.w3.org/1999/xlink">
<defs>
<symbol id="icon-aswat-from-haramain" viewBox="0 0 32 32">
<title>aswat-from-haramain</title>
<path d="M16 22.153c1.693 0 3.141-0.603 4.346-1.807s1.807-2.654 1.807-4.346v-9.846c0-1.692-0.602-3.141-1.807-4.346s-2.654-1.808-4.346-1.808c-1.692 0-3.141 0.603-4.346 1.808s-1.808 2.654-1.808 4.346v9.846c0 1.692 0.603 3.142 1.808 4.346s2.654 1.807 4.346 1.807z"></path>
<path d="M26.711 12.673c-0.243-0.244-0.532-0.365-0.865-0.365s-0.621 0.122-0.865 0.365c-0.243 0.244-0.365 0.532-0.365 0.865v2.462c0 2.372-0.843 4.401-2.529 6.086s-3.714 2.529-6.086 2.529c-2.372 0-4.401-0.843-6.087-2.529s-2.529-3.715-2.529-6.086v-2.462c0-0.333-0.122-0.622-0.365-0.865s-0.532-0.365-0.865-0.365-0.622 0.122-0.866 0.365c-0.244 0.244-0.365 0.532-0.365 0.865v2.462c0 2.833 0.946 5.298 2.837 7.394s4.227 3.298 7.010 3.605v2.539h-4.923c-0.333 0-0.622 0.122-0.865 0.366s-0.365 0.532-0.365 0.865c0 0.333 0.122 0.622 0.365 0.865s0.532 0.366 0.865 0.366h12.307c0.333 0 0.622-0.122 0.865-0.366s0.366-0.532 0.366-0.865c0-0.333-0.122-0.622-0.366-0.865s-0.532-0.366-0.865-0.366h-4.922v-2.539c2.782-0.307 5.118-1.509 7.009-3.605s2.837-4.561 2.837-7.394v-2.462c0-0.333-0.122-0.621-0.366-0.865z"></path>
</symbol>
<symbol id="icon-haram-madina" viewBox="0 0 32 32">
<title>haram-madina</title>
<path d="M31.509 20.035c-0.412-0.231-0.931-0.13-1.225 0.24-2.524 3.175-6.295 4.996-10.345 4.996-7.284 0-13.209-5.926-13.209-13.209 0-4.050 1.821-7.821 4.996-10.345 0.37-0.294 0.471-0.813 0.24-1.225s-0.728-0.595-1.171-0.432c-3.134 1.151-5.817 3.204-7.759 5.938-1.985 2.795-3.035 6.090-3.035 9.53 0 4.4 1.714 8.537 4.825 11.648s7.248 4.825 11.648 4.825c3.439 0 6.735-1.050 9.53-3.035 2.733-1.942 4.786-4.625 5.938-7.759 0.163-0.444-0.020-0.94-0.432-1.171z"></path>
<path d="M15.162 13.992l-0.258 2.924c-0.030 0.337 0.12 0.665 0.393 0.863 0.167 0.122 0.366 0.184 0.566 0.184 0.127 0 0.255-0.025 0.376-0.077l2.701-1.149 2.702 1.149c0.311 0.132 0.669 0.092 0.942-0.107s0.423-0.526 0.393-0.863l-0.258-2.924 1.927-2.214c0.222-0.255 0.294-0.608 0.189-0.93s-0.37-0.565-0.699-0.641l-2.861-0.658-1.51-2.517c-0.174-0.29-0.488-0.467-0.825-0.467s-0.652 0.178-0.826 0.467l-1.51 2.517-2.861 0.658c-0.33 0.076-0.595 0.319-0.7 0.641s-0.032 0.675 0.189 0.93z"></path>
</symbol>
<symbol id="icon-zedni-elman" viewBox="0 0 32 32">
<title>zedni-elman</title>
<path d="M31.468 7.415c-0.268-0.358-0.646-0.633-1.133-0.825 0.026 0.448-0.006 0.813-0.095 1.095l-5.758 18.944c-0.103 0.333-0.327 0.598-0.672 0.797s-0.704 0.298-1.075 0.298h-17.715c-1.535 0-2.457-0.447-2.764-1.344-0.128-0.346-0.121-0.62 0.019-0.825 0.141-0.192 0.384-0.288 0.729-0.288h16.679c1.19 0 2.012-0.221 2.466-0.662s0.912-1.424 1.372-2.946l5.259-17.39c0.281-0.947 0.166-1.779-0.346-2.495s-1.241-1.075-2.188-1.075h-14.606c-0.166 0-0.493 0.057-0.979 0.173l0.019-0.058c-0.358-0.077-0.662-0.112-0.912-0.106s-0.48 0.080-0.691 0.221c-0.211 0.141-0.381 0.291-0.509 0.451s-0.253 0.365-0.374 0.614c-0.121 0.25-0.224 0.48-0.307 0.691s-0.179 0.435-0.288 0.672c-0.109 0.237-0.214 0.432-0.317 0.585-0.077 0.102-0.185 0.237-0.326 0.403s-0.256 0.314-0.345 0.441c-0.089 0.128-0.147 0.243-0.173 0.346-0.025 0.115-0.013 0.285 0.038 0.509s0.070 0.387 0.057 0.489c-0.051 0.486-0.227 1.103-0.528 1.852s-0.573 1.289-0.816 1.622c-0.051 0.064-0.192 0.208-0.422 0.432s-0.371 0.419-0.422 0.585c-0.051 0.064-0.054 0.243-0.010 0.537s0.061 0.499 0.048 0.614c-0.051 0.435-0.211 1.011-0.48 1.728s-0.537 1.305-0.806 1.766c-0.038 0.077-0.147 0.224-0.326 0.441s-0.288 0.397-0.326 0.537c-0.026 0.102-0.022 0.282 0.010 0.537s0.029 0.448-0.010 0.576c-0.102 0.486-0.294 1.072-0.576 1.756s-0.569 1.27-0.864 1.756c-0.077 0.128-0.182 0.279-0.317 0.451s-0.24 0.323-0.317 0.451c-0.077 0.128-0.128 0.262-0.154 0.403-0.013 0.077 0.007 0.202 0.058 0.375s0.070 0.31 0.057 0.413c-0.013 0.179-0.038 0.416-0.077 0.71s-0.058 0.466-0.058 0.518c-0.281 0.768-0.269 1.581 0.038 2.438 0.358 0.997 0.995 1.839 1.91 2.524s1.865 1.027 2.85 1.027h17.716c0.831 0 1.615-0.278 2.351-0.835s1.225-1.244 1.468-2.064l5.278-17.389c0.282-0.922 0.167-1.747-0.345-2.476zM11.046 7.454l0.403-1.228c0.051-0.166 0.157-0.31 0.317-0.432s0.323-0.182 0.49-0.182h11.67c0.179 0 0.307 0.061 0.384 0.182s0.090 0.265 0.039 0.432l-0.404 1.229c-0.051 0.166-0.156 0.31-0.317 0.432s-0.323 0.182-0.489 0.182h-11.669c-0.179 0-0.307-0.060-0.384-0.182s-0.090-0.265-0.038-0.432zM9.453 12.367l0.403-1.228c0.051-0.166 0.157-0.31 0.317-0.432s0.323-0.182 0.49-0.182h11.669c0.179 0 0.307 0.060 0.384 0.182s0.089 0.265 0.038 0.432l-0.403 1.228c-0.051 0.166-0.157 0.31-0.317 0.432s-0.323 0.182-0.49 0.182h-11.669c-0.179 0-0.307-0.060-0.384-0.182s-0.090-0.265-0.038-0.432z"></path>
</symbol>
<symbol id="icon-hajj-guide" viewBox="0 0 32 32">
<title>hajj-guide</title>
<path d="M15.434 0c-8.523 0-15.434 6.911-15.434 15.434s6.911 15.436 15.434 15.436c8.523 0 15.436-6.912 15.436-15.436s-6.912-15.434-15.436-15.434zM18.647 23.921c-0.794 0.314-1.427 0.551-1.901 0.716-0.473 0.165-1.023 0.247-1.649 0.247-0.962 0-1.71-0.235-2.244-0.704s-0.798-1.064-0.798-1.786c0-0.281 0.020-0.568 0.059-0.861 0.040-0.293 0.105-0.622 0.192-0.992l0.994-3.512c0.088-0.337 0.163-0.657 0.223-0.955 0.060-0.301 0.089-0.576 0.089-0.827 0-0.447-0.093-0.76-0.277-0.937-0.187-0.176-0.538-0.263-1.062-0.263-0.256 0-0.52 0.038-0.791 0.118-0.268 0.082-0.5 0.157-0.691 0.23l0.263-1.082c0.651-0.265 1.274-0.493 1.869-0.681 0.595-0.191 1.156-0.285 1.686-0.285 0.955 0 1.692 0.233 2.211 0.693 0.516 0.461 0.776 1.061 0.776 1.798 0 0.153-0.018 0.422-0.054 0.806-0.035 0.385-0.102 0.737-0.199 1.060l-0.989 3.502c-0.081 0.281-0.153 0.602-0.218 0.962-0.064 0.359-0.095 0.634-0.095 0.818 0 0.465 0.103 0.783 0.312 0.951 0.206 0.169 0.568 0.253 1.081 0.253 0.242 0 0.512-0.043 0.818-0.127 0.303-0.084 0.523-0.158 0.661-0.222l-0.265 1.081zM18.472 9.707c-0.461 0.429-1.017 0.643-1.666 0.643-0.648 0-1.207-0.214-1.673-0.643-0.463-0.429-0.696-0.95-0.696-1.559 0-0.608 0.235-1.13 0.696-1.563 0.465-0.434 1.024-0.649 1.673-0.649 0.649 0 1.206 0.216 1.666 0.649 0.461 0.433 0.693 0.955 0.693 1.563 0 0.61-0.231 1.13-0.693 1.559z"></path>
</symbol>
<symbol id="icon-omra-guide" viewBox="0 0 32 32">
<title>omra-guide</title>
<path d="M15.434 0c-8.523 0-15.434 6.911-15.434 15.434s6.911 15.436 15.434 15.436c8.523 0 15.436-6.912 15.436-15.436s-6.912-15.434-15.436-15.434zM18.647 23.921c-0.794 0.314-1.427 0.551-1.901 0.716-0.473 0.165-1.023 0.247-1.649 0.247-0.962 0-1.71-0.235-2.244-0.704s-0.798-1.064-0.798-1.786c0-0.281 0.020-0.568 0.059-0.861 0.040-0.293 0.105-0.622 0.192-0.992l0.994-3.512c0.088-0.337 0.163-0.657 0.223-0.955 0.060-0.301 0.089-0.576 0.089-0.827 0-0.447-0.093-0.76-0.277-0.937-0.187-0.176-0.538-0.263-1.062-0.263-0.256 0-0.52 0.038-0.791 0.118-0.268 0.082-0.5 0.157-0.691 0.23l0.263-1.082c0.651-0.265 1.274-0.493 1.869-0.681 0.595-0.191 1.156-0.285 1.686-0.285 0.955 0 1.692 0.233 2.211 0.693 0.516 0.461 0.776 1.061 0.776 1.798 0 0.153-0.018 0.422-0.054 0.806-0.035 0.385-0.102 0.737-0.199 1.060l-0.989 3.502c-0.081 0.281-0.153 0.602-0.218 0.962-0.064 0.359-0.095 0.634-0.095 0.818 0 0.465 0.103 0.783 0.312 0.951 0.206 0.169 0.568 0.253 1.081 0.253 0.242 0 0.512-0.043 0.818-0.127 0.303-0.084 0.523-0.158 0.661-0.222l-0.265 1.081zM18.472 9.707c-0.461 0.429-1.017 0.643-1.666 0.643-0.648 0-1.207-0.214-1.673-0.643-0.463-0.429-0.696-0.95-0.696-1.559 0-0.608 0.235-1.13 0.696-1.563 0.465-0.434 1.024-0.649 1.673-0.649 0.649 0 1.206 0.216 1.666 0.649 0.461 0.433 0.693 0.955 0.693 1.563 0 0.61-0.231 1.13-0.693 1.559z"></path>
</symbol>
<symbol id="icon-haram-mecca" viewBox="0 0 32 32">
<title>haram-mecca</title>
<path d="M1.852 9.855l13.889 3.321c0.15 0.036 0.307 0.036 0.456 0l15.772-3.771v-2.345l-15.315 3.662c-0.224 0.053-0.454 0.081-0.685 0.081s-0.461-0.027-0.685-0.081l-15.315-3.662v2.345l1.882 0.45z"></path>
<path d="M15.97 14.976l-16-3.826v15.076c0 0.413 0.294 0.773 0.713 0.873l3.679 0.88v-8.505c0-0.277 0.134-0.539 0.362-0.71s0.526-0.231 0.807-0.164l6.274 1.5c0.419 0.1 0.713 0.46 0.713 0.873v8.955l3.223 0.771c0.075 0.018 0.151 0.027 0.228 0.027s0.153-0.009 0.228-0.027l15.059-3.601c0.419-0.1 0.713-0.46 0.713-0.873v-15.076l-16 3.826z"></path>
<path d="M15.97 9.002c-0.077 0-0.153-0.009-0.228-0.027l-15.059-3.601c-0.419-0.1-0.713-0.46-0.713-0.873s0.294-0.773 0.713-0.873l15.059-3.601c0.15-0.036 0.307-0.036 0.456 0l15.059 3.601c0.419 0.1 0.713 0.46 0.713 0.873s-0.294 0.773-0.713 0.873l-15.059 3.601c-0.075 0.018-0.151 0.027-0.228 0.027z"></path>
<path d="M7.365 28.429l4.201 1.050v-7.802l-4.201-1.050z"></path>
</symbol>
<symbol id="icon-maalem-khaledah" viewBox="0 0 32 32">
<title>maalem-khaledah</title>
<path fill="#000" style="fill: var(--color1, #000)" d="M0 0h32v30.667h-32v-30.667z"></path>
<path fill="#fff" style="fill: var(--color2, #fff)" d="M9.333 14.667l9.333 16h-18.667z"></path>
<path fill="#fff" style="fill: var(--color2, #fff)" d="M18.667 17.333l9.333 13.333h-18.667z"></path>
<path fill="#fff" style="fill: var(--color2, #fff)" d="M26.667 10.667c0 2.946-2.388 5.333-5.333 5.333s-5.333-2.388-5.333-5.333c0-2.946 2.388-5.333 5.333-5.333s5.333 2.388 5.333 5.333z"></path>
</symbol>
<symbol id="icon-rokon-khames" viewBox="0 0 32 32">
<title>rokon-khames</title>
<path fill="#030104" style="fill: var(--color3, #030104)" d="M15.434 0c-8.523 0-15.434 6.911-15.434 15.434s6.911 15.436 15.434 15.436c8.523 0 15.436-6.912 15.436-15.436s-6.912-15.434-15.436-15.434zM18.647 23.921c-0.794 0.314-1.427 0.551-1.901 0.716-0.473 0.165-1.023 0.247-1.649 0.247-0.962 0-1.71-0.235-2.244-0.704s-0.798-1.064-0.798-1.786c0-0.281 0.020-0.568 0.059-0.861 0.040-0.293 0.105-0.622 0.192-0.992l0.994-3.512c0.088-0.337 0.163-0.657 0.223-0.955 0.060-0.301 0.089-0.576 0.089-0.827 0-0.447-0.093-0.76-0.277-0.937-0.187-0.176-0.538-0.263-1.062-0.263-0.256 0-0.52 0.038-0.791 0.118-0.268 0.082-0.5 0.157-0.691 0.23l0.263-1.082c0.651-0.265 1.274-0.493 1.869-0.681 0.595-0.191 1.156-0.285 1.686-0.285 0.955 0 1.692 0.233 2.211 0.693 0.516 0.461 0.776 1.061 0.776 1.798 0 0.153-0.018 0.422-0.054 0.806-0.035 0.385-0.102 0.737-0.199 1.060l-0.989 3.502c-0.081 0.281-0.153 0.602-0.218 0.962-0.064 0.359-0.095 0.634-0.095 0.818 0 0.465 0.103 0.783 0.312 0.951 0.206 0.169 0.568 0.253 1.081 0.253 0.242 0 0.512-0.043 0.818-0.127 0.303-0.084 0.523-0.158 0.661-0.222l-0.265 1.081zM18.472 9.707c-0.461 0.429-1.017 0.643-1.666 0.643-0.648 0-1.207-0.214-1.673-0.643-0.463-0.429-0.696-0.95-0.696-1.559 0-0.608 0.235-1.13 0.696-1.563 0.465-0.434 1.024-0.649 1.673-0.649 0.649 0 1.206 0.216 1.666 0.649 0.461 0.433 0.693 0.955 0.693 1.563 0 0.61-0.231 1.13-0.693 1.559z"></path>
<path fill="#030104" style="fill: var(--color3, #030104)" d="M9.333 4h12v22.667h-12v-22.667z"></path>
<path fill="#fff" style="fill: var(--color2, #fff)" d="M15.333 19.667l-5.094 2.678 0.973-5.672-4.121-4.017 5.695-0.828 2.547-5.161 2.547 5.161 5.695 0.828-4.121 4.017 0.973 5.672z"></path>
</symbol>
<symbol id="icon-min-kol-faj" viewBox="0 0 32 32">
<title>min-kol-faj</title>
<path d="M26.486 21.887c-0 0-0.001 0.001-0.001 0.001-2.717 2.739-6.338 4.247-10.196 4.247-3.836 0-7.443-1.494-10.155-4.206s-4.206-6.319-4.206-10.155c0-3.836 1.494-7.443 4.206-10.155 0-0 0.001-0.001 0.001-0.001 0.369-0.371 0.369-0.97-0.001-1.34s-0.971-0.37-1.341 0c-3.071 3.071-4.762 7.154-4.762 11.496s1.691 8.425 4.762 11.496c2.844 2.844 6.557 4.504 10.54 4.733v1.926h-8.157c-0.524 0-0.948 0.424-0.948 0.948s0.425 0.948 0.948 0.948h18.274c0.524 0 0.948-0.425 0.948-0.948s-0.424-0.948-0.948-0.948h-8.22v-1.925c4.013-0.227 7.748-1.903 10.602-4.78 0.369-0.372 0.366-0.972-0.005-1.341s-0.971-0.366-1.34 0.004v0z"></path>
<path d="M21.986 7.004c1.214-0.145 2.368-0.338 3.435-0.573-1.23-1.982-3.086-3.537-5.291-4.385 0.26 0.413 0.505 0.872 0.732 1.376 0.475 1.058 0.853 2.27 1.124 3.582v0z"></path>
<path d="M13.431 4.199c-0.397 0.883-0.718 1.893-0.957 2.991 1.236 0.095 2.514 0.144 3.807 0.144s2.571-0.049 3.807-0.144c-0.239-1.098-0.56-2.108-0.957-2.991-0.818-1.822-1.857-2.866-2.85-2.866s-2.032 1.045-2.85 2.866z"></path>
<path d="M21.979 17.193c-0.271 1.3-0.646 2.501-1.117 3.55-0.226 0.504-0.471 0.963-0.731 1.376 2.194-0.844 4.042-2.388 5.273-4.356-1.064-0.234-2.214-0.425-3.424-0.57z"></path>
<path d="M22.485 12.082c0 1.107-0.067 2.194-0.196 3.237 1.421 0.173 2.767 0.407 3.996 0.698 0.482-1.219 0.746-2.547 0.746-3.936 0-1.377-0.261-2.694-0.735-3.905-1.231 0.292-2.58 0.527-4.004 0.7 0.127 1.034 0.192 2.109 0.192 3.205v0z"></path>
<path d="M12.432 22.118c-0.26-0.413-0.505-0.872-0.732-1.376-0.471-1.049-0.847-2.25-1.117-3.55-1.209 0.145-2.36 0.336-3.424 0.57 1.23 1.968 3.079 3.512 5.273 4.356v0z"></path>
<path d="M10.577 7.004c0.271-1.312 0.649-2.524 1.124-3.582 0.226-0.504 0.471-0.963 0.732-1.376-2.204 0.848-4.061 2.403-5.291 4.385 1.067 0.235 2.221 0.427 3.435 0.573z"></path>
<path d="M6.267 8.177c-0.474 1.211-0.735 2.528-0.735 3.905 0 1.389 0.265 2.716 0.746 3.936 1.229-0.291 2.575-0.525 3.996-0.698-0.129-1.044-0.196-2.13-0.196-3.238 0-1.096 0.066-2.171 0.192-3.205-1.424-0.174-2.773-0.409-4.004-0.701z"></path>
<path d="M12.161 15.13c1.338-0.108 2.721-0.163 4.12-0.163s2.783 0.056 4.12 0.163c0.122-0.978 0.186-2.001 0.186-3.048 0-1.035-0.062-2.047-0.182-3.015-1.339 0.108-2.724 0.164-4.124 0.164s-2.785-0.056-4.124-0.164c-0.12 0.968-0.182 1.98-0.182 3.015-0 1.047 0.063 2.070 0.186 3.048v0z"></path>
<path d="M16.281 16.863c-1.291 0-2.566 0.049-3.8 0.143 0.238 1.085 0.557 2.084 0.95 2.958 0.818 1.822 1.857 2.866 2.85 2.866s2.032-1.045 2.85-2.866c0.393-0.874 0.711-1.873 0.95-2.958-1.234-0.095-2.509-0.143-3.8-0.143v0z"></path>
</symbol>
</defs>
</svg>
